<svg xmlns="http://www.w3.org/2000/svg" viewBox="0 0 299.1 299.1"><linearGradient id="a" gradientUnits="userSpaceOnUse" x1="269.678" y1="69.602" x2="165.185" y2="127.514"><stop offset="0" stop-color="#6adfff"/><stop offset="1" stop-color="#1565ff"/></linearGradient><path d="M222.3 63.6s23.3 38.1 23.7 48.7-40.4 8-41.2 16.9c0 0 4.4-43.7 17.5-65.6z" fill="url(#a)"/><linearGradient id="b" gradientUnits="userSpaceOnUse" x1="150.047" y1="-19.446" x2="150.047" y2="120.297"><stop offset="0" stop-color="#6adfff"/><stop offset="1" stop-color="#1565ff"/></linearGradient><path d="M179.7 48.7c-25.4 5.4-34.8 4.9-60.1.6v6.3L143.3 74h26.4l10.7-20.2-.7-5.1z" fill="url(#b)"/><linearGradient id="c" gradientUnits="userSpaceOnUse" x1="149.511" y1="-1.191" x2="149.511" y2="244.973"><stop offset="0" stop-color="#6adfff"/><stop offset="1" stop-color="#1565ff"/></linearGradient><path d="M210.3 242.1c-57.5 18.6-122.1 0-122.1 0 23-119.4-11.5-178.5-11.5-178.5s23.2-5.6 42.9-14.3c5.2 11.4 16.6 19.3 29.9 19.3 13.5 0 25.1-8.2 30.2-19.8h.6c16 9.7 42 14.9 42 14.9-30.1 55.7-12 178.4-12 178.4z" fill="url(#c)"/><path d="M89.2 242.4c8.2 2.2 66.8 16.8 119.9.1-4.5-3.6-29.7-6.3-60-6.3-30.1 0-55 2.7-59.9 6.2z" opacity=".1" fill="#0d137f"/><linearGradient id="d" gradientUnits="userSpaceOnUse" x1="41.716" y1="77.648" x2="122.737" y2="118.594"><stop offset="0" stop-color="#6adfff"/><stop offset="1" stop-color="#1565ff"/></linearGradient><path d="M76.8 63.6s-23.3 38.1-23.7 48.7c-.4 10.6 40.4 8 41.2 16.9 0 0-4.4-43.7-17.5-65.6z" fill="url(#d)"/></svg>